<mxfile host="app.diagrams.net" agent="Mozilla/5.0 (Windows NT 10.0; Win64; x64) AppleWebKit/537.36 (KHTML, like Gecko) Chrome/114.0.0.0 Safari/537.36" version="24.7.6">
  <diagram name="Page-1" id="DMvzgK4vA9p5Hm2pCDSw">
    <mxGraphModel dx="3475" dy="1313" grid="1" gridSize="10" guides="1" tooltips="1" connect="1" arrows="1" fold="1" page="1" pageScale="1" pageWidth="827" pageHeight="1169" math="0" shadow="0">
      <root>
        <mxCell id="0" />
        <mxCell id="1" parent="0" />
        <mxCell id="1yNCoC5zNSv0WETuy39g-1" value="EMMC 125MB" style="whiteSpace=wrap;html=1;verticalAlign=bottom;labelPosition=center;verticalLabelPosition=top;align=center;fontSize=22;spacingBottom=20;fillColor=none;strokeColor=none;" parent="1" vertex="1">
          <mxGeometry x="140" y="290" width="160" height="80" as="geometry" />
        </mxCell>
        <mxCell id="1yNCoC5zNSv0WETuy39g-12" value="" style="sketch=0;pointerEvents=1;shadow=0;dashed=0;html=1;strokeColor=none;fillColor=#434445;aspect=fixed;labelPosition=center;verticalLabelPosition=bottom;verticalAlign=top;align=center;outlineConnect=0;shape=mxgraph.vvd.cpu;" parent="1" vertex="1">
          <mxGeometry x="195" y="170" width="50" height="50" as="geometry" />
        </mxCell>
        <mxCell id="1yNCoC5zNSv0WETuy39g-13" value="/boot&lt;br&gt;16MB read-only squashfs" style="rounded=0;whiteSpace=wrap;html=1;" parent="1" vertex="1">
          <mxGeometry x="140" y="290" width="160" height="40" as="geometry" />
        </mxCell>
        <mxCell id="1yNCoC5zNSv0WETuy39g-14" value="/ rootfs&lt;br&gt;109MB ext4" style="rounded=0;whiteSpace=wrap;html=1;" parent="1" vertex="1">
          <mxGeometry x="140" y="330" width="160" height="120" as="geometry" />
        </mxCell>
        <mxCell id="1yNCoC5zNSv0WETuy39g-16" value="/boot&lt;br&gt;/ rootfs&lt;br&gt;&lt;br&gt;125MB ext4" style="rounded=0;whiteSpace=wrap;html=1;" parent="1" vertex="1">
          <mxGeometry x="140" y="858" width="160" height="160" as="geometry" />
        </mxCell>
        <mxCell id="1yNCoC5zNSv0WETuy39g-20" value="SATA 1" style="sketch=0;pointerEvents=1;shadow=0;dashed=0;html=1;strokeColor=none;fillColor=#505050;labelPosition=center;verticalLabelPosition=bottom;verticalAlign=top;outlineConnect=0;align=center;shape=mxgraph.office.devices.hard_disk;aspect=fixed;horizontal=1;spacingBottom=20;fontSize=22;" parent="1" vertex="1">
          <mxGeometry x="380" y="760" width="37.04" height="50" as="geometry" />
        </mxCell>
        <mxCell id="1yNCoC5zNSv0WETuy39g-24" value="&lt;span style=&quot;font-size: 22px; text-wrap: wrap;&quot;&gt;EMMC 125MB&lt;/span&gt;" style="sketch=0;pointerEvents=1;shadow=0;dashed=0;html=1;strokeColor=none;fillColor=#434445;aspect=fixed;labelPosition=center;verticalLabelPosition=bottom;verticalAlign=top;align=center;outlineConnect=0;shape=mxgraph.vvd.cpu;" parent="1" vertex="1">
          <mxGeometry x="195" y="740" width="50" height="50" as="geometry" />
        </mxCell>
        <mxCell id="1yNCoC5zNSv0WETuy39g-28" value="/mnt/md1&lt;br&gt;md1 RAID1" style="shape=doubleArrow;whiteSpace=wrap;html=1;labelPosition=center;verticalLabelPosition=top;align=center;verticalAlign=bottom;spacingBottom=5;" parent="1" vertex="1">
          <mxGeometry x="470" y="970" width="80" height="25" as="geometry" />
        </mxCell>
        <mxCell id="1yNCoC5zNSv0WETuy39g-29" value="p1&lt;br&gt;overlay extroot" style="rounded=0;whiteSpace=wrap;html=1;" parent="1" vertex="1">
          <mxGeometry x="340" y="858" width="120" height="42" as="geometry" />
        </mxCell>
        <mxCell id="1yNCoC5zNSv0WETuy39g-31" value="p2&lt;br&gt;data" style="rounded=0;whiteSpace=wrap;html=1;" parent="1" vertex="1">
          <mxGeometry x="340" y="900" width="120" height="120" as="geometry" />
        </mxCell>
        <mxCell id="1yNCoC5zNSv0WETuy39g-34" value="SATA 2" style="sketch=0;pointerEvents=1;shadow=0;dashed=0;html=1;strokeColor=none;fillColor=#505050;labelPosition=center;verticalLabelPosition=bottom;verticalAlign=top;outlineConnect=0;align=center;shape=mxgraph.office.devices.hard_disk;aspect=fixed;horizontal=1;spacingBottom=20;fontSize=22;" parent="1" vertex="1">
          <mxGeometry x="600" y="760" width="37.04" height="50" as="geometry" />
        </mxCell>
        <mxCell id="1yNCoC5zNSv0WETuy39g-35" value="p1&lt;br&gt;overlay&amp;nbsp;extroot" style="rounded=0;whiteSpace=wrap;html=1;" parent="1" vertex="1">
          <mxGeometry x="560" y="858" width="120" height="42" as="geometry" />
        </mxCell>
        <mxCell id="1yNCoC5zNSv0WETuy39g-36" value="p2&lt;br&gt;data" style="rounded=0;whiteSpace=wrap;html=1;" parent="1" vertex="1">
          <mxGeometry x="560" y="900" width="120" height="120" as="geometry" />
        </mxCell>
        <mxCell id="1yNCoC5zNSv0WETuy39g-37" value="/overlay&lt;br&gt;md0 RAID1" style="shape=doubleArrow;whiteSpace=wrap;html=1;labelPosition=center;verticalLabelPosition=top;align=center;verticalAlign=bottom;spacingBottom=5;" parent="1" vertex="1">
          <mxGeometry x="470" y="866.5" width="80" height="25" as="geometry" />
        </mxCell>
        <mxCell id="1yNCoC5zNSv0WETuy39g-41" value="SATA 1" style="sketch=0;pointerEvents=1;shadow=0;dashed=0;html=1;strokeColor=none;fillColor=#505050;labelPosition=center;verticalLabelPosition=bottom;verticalAlign=top;outlineConnect=0;align=center;shape=mxgraph.office.devices.hard_disk;aspect=fixed;horizontal=1;spacingBottom=20;fontSize=22;" parent="1" vertex="1">
          <mxGeometry x="380" y="190" width="37.04" height="50" as="geometry" />
        </mxCell>
        <mxCell id="1yNCoC5zNSv0WETuy39g-42" value="md1 RAID1" style="shape=doubleArrow;whiteSpace=wrap;html=1;labelPosition=center;verticalLabelPosition=top;align=center;verticalAlign=bottom;spacingBottom=5;" parent="1" vertex="1">
          <mxGeometry x="470" y="402" width="80" height="25" as="geometry" />
        </mxCell>
        <mxCell id="1yNCoC5zNSv0WETuy39g-43" value="p1&lt;br&gt;/mnt/md0" style="rounded=0;whiteSpace=wrap;html=1;" parent="1" vertex="1">
          <mxGeometry x="340" y="290" width="120" height="160" as="geometry" />
        </mxCell>
        <mxCell id="1yNCoC5zNSv0WETuy39g-45" value="SATA 2" style="sketch=0;pointerEvents=1;shadow=0;dashed=0;html=1;strokeColor=none;fillColor=#505050;labelPosition=center;verticalLabelPosition=bottom;verticalAlign=top;outlineConnect=0;align=center;shape=mxgraph.office.devices.hard_disk;aspect=fixed;horizontal=1;spacingBottom=20;fontSize=22;" parent="1" vertex="1">
          <mxGeometry x="600" y="190" width="37.04" height="50" as="geometry" />
        </mxCell>
        <mxCell id="1yNCoC5zNSv0WETuy39g-46" value="p1&lt;br&gt;/mnt/md0" style="rounded=0;whiteSpace=wrap;html=1;" parent="1" vertex="1">
          <mxGeometry x="560" y="290" width="120" height="160" as="geometry" />
        </mxCell>
        <mxCell id="1yNCoC5zNSv0WETuy39g-48" value="md0 RAID1" style="shape=doubleArrow;whiteSpace=wrap;html=1;labelPosition=center;verticalLabelPosition=top;align=center;verticalAlign=bottom;spacingBottom=5;" parent="1" vertex="1">
          <mxGeometry x="470" y="298.5" width="80" height="25" as="geometry" />
        </mxCell>
        <mxCell id="9IoLLvkfu7VLodNORfG5-1" value="" style="endArrow=none;dashed=1;html=1;rounded=0;strokeWidth=3;" edge="1" parent="1">
          <mxGeometry width="50" height="50" relative="1" as="geometry">
            <mxPoint x="10" y="600" as="sourcePoint" />
            <mxPoint x="820" y="600" as="targetPoint" />
          </mxGeometry>
        </mxCell>
        <mxCell id="9IoLLvkfu7VLodNORfG5-2" value="openwrt-squashfs-combined" style="text;strokeColor=none;fillColor=none;html=1;fontSize=24;fontStyle=1;verticalAlign=middle;align=center;" vertex="1" parent="1">
          <mxGeometry x="360" y="70" width="100" height="40" as="geometry" />
        </mxCell>
        <mxCell id="9IoLLvkfu7VLodNORfG5-3" value="openwrt-ext4-combined" style="text;strokeColor=none;fillColor=none;html=1;fontSize=24;fontStyle=1;verticalAlign=middle;align=center;" vertex="1" parent="1">
          <mxGeometry x="360" y="650" width="100" height="40" as="geometry" />
        </mxCell>
      </root>
    </mxGraphModel>
  </diagram>
</mxfile>
